<svg width="229" height="69" viewBox="0 0 229 69" fill="none" xmlns="http://www.w3.org/2000/svg">
<path d="M71.4791 48.9004L71.4649 45.2214H72.2462C72.8522 45.2214 73.3589 45.0936 73.7661 44.8379C74.1827 44.5727 74.5236 44.1277 74.7888 43.5027C75.0539 42.8777 75.2575 42.0159 75.3996 40.9174C75.5416 39.8095 75.6458 38.4174 75.7121 36.7413L76.0956 27.0822H91.3229V48.9004H87.161V30.747H80.0303L79.6894 38.1618C79.6041 39.961 79.4195 41.533 79.1354 42.8777C78.8608 44.2224 78.4583 45.3445 77.928 46.2441C77.3977 47.1343 76.7159 47.8019 75.8825 48.247C75.0492 48.6826 74.036 48.9004 72.8428 48.9004H71.4791ZM106.177 49.3407C104.132 49.3407 102.347 48.872 100.822 47.9345C99.2976 46.997 98.1138 45.6854 97.271 43.9998C96.4282 42.3142 96.0068 40.3445 96.0068 38.0907C96.0068 35.8275 96.4282 33.8483 97.271 32.1532C98.1138 30.4582 99.2976 29.1419 100.822 28.2044C102.347 27.2669 104.132 26.7981 106.177 26.7981C108.223 26.7981 110.008 27.2669 111.532 28.2044C113.057 29.1419 114.241 30.4582 115.084 32.1532C115.926 33.8483 116.348 35.8275 116.348 38.0907C116.348 40.3445 115.926 42.3142 115.084 43.9998C114.241 45.6854 113.057 46.997 111.532 47.9345C110.008 48.872 108.223 49.3407 106.177 49.3407ZM106.191 45.7754C107.517 45.7754 108.616 45.425 109.487 44.7243C110.358 44.0235 111.002 43.0907 111.419 41.926C111.845 40.7612 112.058 39.478 112.058 38.0765C112.058 36.6845 111.845 35.4061 111.419 34.2413C111.002 33.0671 110.358 32.1248 109.487 31.4146C108.616 30.7044 107.517 30.3493 106.191 30.3493C104.856 30.3493 103.748 30.7044 102.868 31.4146C101.996 32.1248 101.348 33.0671 100.922 34.2413C100.505 35.4061 100.297 36.6845 100.297 38.0765C100.297 39.478 100.505 40.7612 100.922 41.926C101.348 43.0907 101.996 44.0235 102.868 44.7243C103.748 45.425 104.856 45.7754 106.191 45.7754ZM135.037 27.0822V30.747H125.279V48.9004H121.089V27.0822H135.037ZM147.701 49.3407C145.655 49.3407 143.87 48.872 142.346 47.9345C140.821 46.997 139.637 45.6854 138.794 43.9998C137.952 42.3142 137.53 40.3445 137.53 38.0907C137.53 35.8275 137.952 33.8483 138.794 32.1532C139.637 30.4582 140.821 29.1419 142.346 28.2044C143.87 27.2669 145.655 26.7981 147.701 26.7981C149.746 26.7981 151.531 27.2669 153.056 28.2044C154.58 29.1419 155.764 30.4582 156.607 32.1532C157.45 33.8483 157.871 35.8275 157.871 38.0907C157.871 40.3445 157.45 42.3142 156.607 43.9998C155.764 45.6854 154.58 46.997 153.056 47.9345C151.531 48.872 149.746 49.3407 147.701 49.3407ZM147.715 45.7754C149.041 45.7754 150.139 45.425 151.01 44.7243C151.882 44.0235 152.526 43.0907 152.942 41.926C153.368 40.7612 153.581 39.478 153.581 38.0765C153.581 36.6845 153.368 35.4061 152.942 34.2413C152.526 33.0671 151.882 32.1248 151.01 31.4146C150.139 30.7044 149.041 30.3493 147.715 30.3493C146.38 30.3493 145.272 30.7044 144.391 31.4146C143.52 32.1248 142.871 33.0671 142.445 34.2413C142.028 35.4061 141.82 36.6845 141.82 38.0765C141.82 39.478 142.028 40.7612 142.445 41.926C142.871 43.0907 143.52 44.0235 144.391 44.7243C145.272 45.425 146.38 45.7754 147.715 45.7754ZM159.984 30.747V27.0822H178.393V30.747H171.277V48.9004H167.129V30.747H159.984ZM187.047 42.9487L196.664 27.0822H201.238V48.9004H197.076V33.0197L187.502 48.9004H182.885V27.0822H187.047V42.9487ZM206.948 48.9004V27.0822H224.746V48.9004H220.584V30.747H211.081V48.9004H206.948Z" fill="white"/>
<circle cx="30.0664" cy="34.9004" r="29.4092" fill="white"/>
</svg>
