<svg width="28" height="28" viewBox="0 0 28 28" fill="none" xmlns="http://www.w3.org/2000/svg">
<path fill-rule="evenodd" clip-rule="evenodd" d="M4.37284 6.62784C3.3822 7.61848 3.3822 9.21288 3.3822 12.4017V14.6565C3.3822 17.8453 3.3822 19.4397 4.37284 20.4304C5.36347 21.421 6.95787 21.421 10.1467 21.421H16.9112C20.1 21.421 21.6944 21.421 22.685 20.4304C23.6756 19.4397 23.6756 17.8453 23.6756 14.6565V12.4017C23.6756 9.21288 23.6756 7.61848 22.685 6.62784C21.6944 5.63721 20.1 5.63721 16.9112 5.63721H10.1467C6.95788 5.63721 5.36347 5.63721 4.37284 6.62784ZM7.38982 9.2088C6.87174 8.86341 6.17176 9.00341 5.82638 9.52148C5.48099 10.0396 5.62099 10.7395 6.13907 11.0849L12.2782 15.1777C13.0356 15.6826 14.0223 15.6826 14.7797 15.1777L20.9188 11.0849C21.4369 10.7395 21.5769 10.0396 21.2315 9.52148C20.8861 9.00341 20.1861 8.86341 19.668 9.2088L13.5289 13.3015L7.38982 9.2088Z" fill="white"/>
</svg>
