<svg width="297" height="89" viewBox="0 0 297 89" fill="none" xmlns="http://www.w3.org/2000/svg">
<path d="M92.9872 63.9722L92.9687 59.1855H93.9852C94.7737 59.1855 95.4329 59.0192 95.9627 58.6865C96.5048 58.3415 96.9483 57.7625 97.2933 56.9493C97.6383 56.1361 97.9032 55.0149 98.088 53.5857C98.2728 52.1442 98.4083 50.333 98.4946 48.1522L98.9936 35.585H118.805V63.9722H113.39V40.3531H104.113L103.669 50.0003C103.558 52.3413 103.318 54.3866 102.949 56.1361C102.591 57.8857 102.068 59.3457 101.378 60.5162C100.688 61.6743 99.8006 62.543 98.7164 63.122C97.6321 63.6888 96.3138 63.9722 94.7614 63.9722H92.9872ZM138.132 64.5451C135.471 64.5451 133.148 63.9352 131.165 62.7154C129.181 61.4957 127.641 59.7892 126.545 57.5961C125.448 55.403 124.9 52.8403 124.9 49.9079C124.9 46.9632 125.448 44.3882 126.545 42.1828C127.641 39.9773 129.181 38.2647 131.165 37.045C133.148 35.8252 135.471 35.2153 138.132 35.2153C140.794 35.2153 143.116 35.8252 145.1 37.045C147.083 38.2647 148.623 39.9773 149.72 42.1828C150.817 44.3882 151.365 46.9632 151.365 49.9079C151.365 52.8403 150.817 55.403 149.72 57.5961C148.623 59.7892 147.083 61.4957 145.1 62.7154C143.116 63.9352 140.794 64.5451 138.132 64.5451ZM138.151 59.9063C139.876 59.9063 141.305 59.4504 142.438 58.5387C143.572 57.6269 144.41 56.4133 144.952 54.8979C145.506 53.3824 145.784 51.7129 145.784 49.8894C145.784 48.0783 145.506 46.415 144.952 44.8995C144.41 43.3717 143.572 42.1458 142.438 41.2217C141.305 40.2977 139.876 39.8356 138.151 39.8356C136.414 39.8356 134.972 40.2977 133.826 41.2217C132.693 42.1458 131.849 43.3717 131.294 44.8995C130.752 46.415 130.481 48.0783 130.481 49.8894C130.481 51.7129 130.752 53.3824 131.294 54.8979C131.849 56.4133 132.693 57.6269 133.826 58.5387C134.972 59.4504 136.414 59.9063 138.151 59.9063ZM175.682 35.585V40.3531H162.985V63.9722H157.533V35.585H175.682ZM192.158 64.5451C189.496 64.5451 187.174 63.9352 185.19 62.7154C183.207 61.4957 181.666 59.7892 180.57 57.5961C179.473 55.403 178.925 52.8403 178.925 49.9079C178.925 46.9632 179.473 44.3882 180.57 42.1828C181.666 39.9773 183.207 38.2647 185.19 37.045C187.174 35.8252 189.496 35.2153 192.158 35.2153C194.819 35.2153 197.141 35.8252 199.125 37.045C201.109 38.2647 202.649 39.9773 203.745 42.1828C204.842 44.3882 205.39 46.9632 205.39 49.9079C205.39 52.8403 204.842 55.403 203.745 57.5961C202.649 59.7892 201.109 61.4957 199.125 62.7154C197.141 63.9352 194.819 64.5451 192.158 64.5451ZM192.176 59.9063C193.901 59.9063 195.33 59.4504 196.464 58.5387C197.597 57.6269 198.435 56.4133 198.977 54.8979C199.532 53.3824 199.809 51.7129 199.809 49.8894C199.809 48.0783 199.532 46.415 198.977 44.8995C198.435 43.3717 197.597 42.1458 196.464 41.2217C195.33 40.2977 193.901 39.8356 192.176 39.8356C190.439 39.8356 188.997 40.2977 187.851 41.2217C186.718 42.1458 185.874 43.3717 185.32 44.8995C184.777 46.415 184.506 48.0783 184.506 49.8894C184.506 51.7129 184.777 53.3824 185.32 54.8979C185.874 56.4133 186.718 57.6269 187.851 58.5387C188.997 59.4504 190.439 59.9063 192.176 59.9063ZM208.139 40.3531V35.585H232.091V40.3531H222.832V63.9722H217.435V40.3531H208.139ZM243.351 56.2285L255.862 35.585H261.813V63.9722H256.398V43.3101L243.942 63.9722H237.936V35.585H243.351V56.2285ZM269.243 63.9722V35.585H292.4V63.9722H286.985V40.3531H274.621V63.9722H269.243Z" fill="#0C0C0C"/>
<circle cx="39.1061" cy="45.209" r="38.2637" fill="#0083FF"/>
</svg>
