<svg width="36" height="36" viewBox="0 0 36 36" fill="none" xmlns="http://www.w3.org/2000/svg">
<mask id="mask0_20_525" style="mask-type:luminance" maskUnits="userSpaceOnUse" x="0" y="0" width="36" height="36">
<path d="M35.5122 0.324219H0.512207V35.3242H35.5122V0.324219Z" fill="white"/>
</mask>
<g mask="url(#mask0_20_525)">
<path d="M18.0122 0.324219C19.945 0.324219 21.5121 1.89113 21.5121 3.82417C21.5121 5.75704 19.945 7.32412 18.0122 7.32412C16.0793 7.32412 14.5122 5.75704 14.5122 3.82417C14.5122 1.89113 16.0793 0.324219 18.0122 0.324219Z" fill="white"/>
</g>
<mask id="mask1_20_525" style="mask-type:luminance" maskUnits="userSpaceOnUse" x="0" y="0" width="36" height="36">
<path d="M35.5122 0.324219H0.512207V35.3242H35.5122V0.324219Z" fill="white"/>
</mask>
<g mask="url(#mask1_20_525)">
<path d="M32.0123 0.324219C33.9452 0.324219 35.5121 1.89113 35.5121 3.82417C35.5121 5.75704 33.9452 7.32412 32.0123 7.32412C30.0792 7.32412 28.5123 5.75704 28.5123 3.82417C28.5123 1.89113 30.0792 0.324219 32.0123 0.324219Z" fill="white"/>
</g>
<mask id="mask2_20_525" style="mask-type:luminance" maskUnits="userSpaceOnUse" x="0" y="0" width="36" height="36">
<path d="M35.5122 0.324219H0.512207V35.3242H35.5122V0.324219Z" fill="white"/>
</mask>
<g mask="url(#mask2_20_525)">
<path d="M4.01216 0.324219C5.94503 0.324219 7.51211 1.89113 7.51211 3.82417C7.51211 5.75704 5.94503 7.32412 4.01216 7.32412C2.07912 7.32412 0.512207 5.75704 0.512207 3.82417C0.512207 1.89113 2.07912 0.324219 4.01216 0.324219Z" fill="white"/>
</g>
<mask id="mask3_20_525" style="mask-type:luminance" maskUnits="userSpaceOnUse" x="0" y="0" width="36" height="36">
<path d="M35.5122 0.324219H0.512207V35.3242H35.5122V0.324219Z" fill="white"/>
</mask>
<g mask="url(#mask3_20_525)">
<path d="M18.0122 14.3242C19.945 14.3242 21.5121 15.8913 21.5121 17.8242C21.5121 19.757 19.945 21.3241 18.0122 21.3241C16.0793 21.3241 14.5122 19.757 14.5122 17.8242C14.5122 15.8913 16.0793 14.3242 18.0122 14.3242Z" fill="white"/>
</g>
<mask id="mask4_20_525" style="mask-type:luminance" maskUnits="userSpaceOnUse" x="0" y="0" width="36" height="36">
<path d="M35.5122 0.324219H0.512207V35.3242H35.5122V0.324219Z" fill="white"/>
</mask>
<g mask="url(#mask4_20_525)">
<path d="M32.0123 14.3242C33.9452 14.3242 35.5121 15.8913 35.5121 17.8242C35.5121 19.757 33.9452 21.3241 32.0123 21.3241C30.0792 21.3241 28.5123 19.757 28.5123 17.8242C28.5123 15.8913 30.0792 14.3242 32.0123 14.3242Z" fill="white"/>
</g>
<mask id="mask5_20_525" style="mask-type:luminance" maskUnits="userSpaceOnUse" x="0" y="0" width="36" height="36">
<path d="M35.5122 0.324219H0.512207V35.3242H35.5122V0.324219Z" fill="white"/>
</mask>
<g mask="url(#mask5_20_525)">
<path d="M4.01216 14.3242C5.94503 14.3242 7.51211 15.8913 7.51211 17.8242C7.51211 19.757 5.94503 21.3241 4.01216 21.3241C2.07912 21.3241 0.512207 19.757 0.512207 17.8242C0.512207 15.8913 2.07912 14.3242 4.01216 14.3242Z" fill="white"/>
</g>
<mask id="mask6_20_525" style="mask-type:luminance" maskUnits="userSpaceOnUse" x="0" y="0" width="36" height="36">
<path d="M35.5122 0.324219H0.512207V35.3242H35.5122V0.324219Z" fill="white"/>
</mask>
<g mask="url(#mask6_20_525)">
<path d="M18.0122 28.3242C19.945 28.3242 21.5121 29.8913 21.5121 31.8242C21.5121 33.757 19.945 35.3241 18.0122 35.3241C16.0793 35.3241 14.5122 33.757 14.5122 31.8242C14.5122 29.8913 16.0793 28.3242 18.0122 28.3242Z" fill="white"/>
</g>
<mask id="mask7_20_525" style="mask-type:luminance" maskUnits="userSpaceOnUse" x="0" y="0" width="36" height="36">
<path d="M35.5122 0.324219H0.512207V35.3242H35.5122V0.324219Z" fill="white"/>
</mask>
<g mask="url(#mask7_20_525)">
<path d="M32.0123 28.3242C33.9452 28.3242 35.5121 29.8913 35.5121 31.8242C35.5121 33.757 33.9452 35.3241 32.0123 35.3241C30.0792 35.3241 28.5123 33.757 28.5123 31.8242C28.5123 29.8913 30.0792 28.3242 32.0123 28.3242Z" fill="white"/>
</g>
<mask id="mask8_20_525" style="mask-type:luminance" maskUnits="userSpaceOnUse" x="0" y="0" width="36" height="36">
<path d="M35.5122 0.324219H0.512207V35.3242H35.5122V0.324219Z" fill="white"/>
</mask>
<g mask="url(#mask8_20_525)">
<path d="M4.01216 28.3242C5.94503 28.3242 7.51211 29.8913 7.51211 31.8242C7.51211 33.757 5.94503 35.3241 4.01216 35.3241C2.07912 35.3241 0.512207 33.757 0.512207 31.8242C0.512207 29.8913 2.07912 28.3242 4.01216 28.3242Z" fill="white"/>
</g>
</svg>
