<svg width="17" height="17" viewBox="0 0 17 17" fill="none" xmlns="http://www.w3.org/2000/svg">
<path d="M13.3292 10.9512L15.9773 13.5994C16.3334 13.9555 16.3334 14.5328 15.9773 14.8889C14.0521 16.8141 11.0042 17.0307 8.82606 15.3971L7.25064 14.2156C5.50711 12.9079 3.95829 11.3591 2.65064 9.61557L1.46908 8.04015C-0.164523 5.86202 0.0520838 2.81413 1.9773 0.88891C2.3334 0.532814 2.91074 0.532813 3.26684 0.888909L5.91496 3.53703C6.30549 3.92756 6.30549 4.56072 5.91496 4.95125L4.89382 5.9724C4.73153 6.13468 4.6913 6.3826 4.79394 6.58787C5.9806 8.9612 7.90501 10.8856 10.2783 12.0723C10.4836 12.1749 10.7315 12.1347 10.8938 11.9724L11.915 10.9512C12.3055 10.5607 12.9387 10.5607 13.3292 10.9512Z" fill="white"/>
</svg>
