<svg width="252" height="252" viewBox="0 0 252 252" fill="none" xmlns="http://www.w3.org/2000/svg">
<g clip-path="url(#clip0_20_500)">
<path d="M249.837 208.074L207.259 165.496L228.141 144.614C229.95 142.805 230.694 140.188 230.106 137.698C229.518 135.207 227.683 133.199 225.255 132.39L99.9652 90.6262C97.3128 89.7418 94.3873 90.4323 92.4101 92.4099C90.4325 94.3875 89.742 97.3121 90.6265 99.965L132.39 225.256C133.2 227.683 135.208 229.519 137.698 230.106C140.188 230.695 142.805 229.951 144.615 228.141L165.497 207.26L208.075 249.838C209.516 251.279 211.406 252 213.295 252C215.184 252 217.074 251.28 218.515 249.838L249.838 218.515C252.721 215.631 252.721 210.957 249.837 208.074ZM213.294 234.176L170.716 191.598C167.833 188.715 163.158 188.715 160.275 191.598L142.62 209.254L109.303 109.304L209.253 142.62L191.598 160.276C188.717 163.156 188.715 167.834 191.598 170.716L234.176 213.295L213.294 234.176Z" fill="#F0F1F5"/>
<path d="M95.9766 59.0625C100.054 59.0625 103.359 55.757 103.359 51.6797V7.38281C103.359 3.30553 100.054 0 95.9766 0C91.8993 0 88.5938 3.30553 88.5938 7.38281V51.6797C88.5938 55.757 91.8993 59.0625 95.9766 59.0625Z" fill="#F0F1F5"/>
<path d="M38.5514 28.1107C35.6687 25.2274 30.9939 25.2274 28.1107 28.1107C25.2274 30.9939 25.2274 35.6682 28.1107 38.5514L59.4335 69.8742C62.3162 72.7575 66.9915 72.7575 69.8743 69.8742C72.7575 66.991 72.7575 62.3167 69.8743 59.4335L38.5514 28.1107Z" fill="#F0F1F5"/>
<path d="M59.4335 122.078L28.1107 153.401C25.2274 156.284 25.2274 160.959 28.1107 163.842C30.9934 166.725 35.6687 166.725 38.5514 163.842L69.8743 132.519C72.7575 129.636 72.7575 124.962 69.8743 122.078C66.991 119.195 62.3162 119.195 59.4335 122.078Z" fill="#F0F1F5"/>
<path d="M132.52 69.8742L163.842 38.5514C166.726 35.6682 166.726 30.9939 163.842 28.1107C160.96 25.2274 156.285 25.2274 153.402 28.1107L122.079 59.4335C119.196 62.3167 119.196 66.991 122.079 69.8742C124.962 72.7575 129.637 72.7575 132.52 69.8742Z" fill="#F0F1F5"/>
<path d="M59.0625 95.9766C59.0625 91.8993 55.757 88.5938 51.6797 88.5938H7.38281C3.30553 88.5938 0 91.8993 0 95.9766C0 100.054 3.30553 103.359 7.38281 103.359H51.6797C55.757 103.359 59.0625 100.054 59.0625 95.9766Z" fill="#F0F1F5"/>
</g>
<defs>
<clipPath id="clip0_20_500">
<rect width="252" height="252" fill="white"/>
</clipPath>
</defs>
</svg>
