<svg width="183" height="263" viewBox="0 0 183 263" fill="none" xmlns="http://www.w3.org/2000/svg">
<path d="M162.419 30.632L162.449 32.1317L163.948 32.1017L170.753 31.9657C173.534 31.9101 176.109 34.4264 176.18 37.9425L180.443 251.263C180.514 254.779 178.041 257.397 175.26 257.452L25.557 260.444C15.2775 260.65 6.45523 251.446 6.21796 239.575L1.95435 26.2536C1.71708 14.3822 10.1645 4.83328 20.444 4.62782L170.147 1.63573C172.928 1.58015 175.503 4.09642 175.573 7.6125C175.644 11.1286 173.171 13.7457 170.39 13.8013L163.585 13.9373L162.086 13.9673L162.116 15.467L162.419 30.632ZM151.506 15.6791L151.476 14.1794L149.976 14.2093L20.6872 16.7934C15.9583 16.8879 12.4673 21.1891 12.5643 26.0416C12.6613 30.8941 16.3213 35.0523 21.0502 34.9578L150.339 32.3737L151.839 32.3438L151.809 30.8441L151.506 15.6791ZM15.0159 46.0542L12.9489 45.2849L12.993 47.4899L16.8279 239.362C16.9249 244.215 20.5849 248.373 25.3138 248.279L168.212 245.423L169.712 245.393L169.682 243.893L165.721 45.737L165.691 44.2373L164.192 44.2673L21.2934 47.1234C19.1027 47.1672 16.99 46.7889 15.0159 46.0542Z" fill="#5A5A5A" stroke="#022190" stroke-width="3"/>
<path d="M145.313 121.511L104.485 122.327C101.704 122.383 99.1289 119.866 99.0587 116.35C98.9884 112.834 101.461 110.217 104.242 110.162L145.07 109.346C147.851 109.29 150.426 111.806 150.497 115.322C150.567 118.838 148.094 121.456 145.313 121.511Z" fill="#5A5A5A" stroke="#022190" stroke-width="3"/>
<path d="M37.3777 170.682L78.2058 169.866C81.9638 169.791 84.9426 166.335 84.8589 162.148C84.7752 157.96 81.6607 154.626 77.9027 154.701L37.0746 155.517C33.3166 155.592 30.3378 159.048 30.4215 163.236C30.5052 167.423 33.6197 170.757 37.3777 170.682Z" fill="#5A5A5A"/>
<path d="M37.9841 201.011L78.8121 200.195C82.5701 200.12 85.549 196.664 85.4653 192.477C85.3816 188.289 82.267 184.955 78.509 185.03L37.681 185.846C33.923 185.922 30.9441 189.377 31.0278 193.565C31.1115 197.752 34.2261 201.087 37.9841 201.011Z" fill="#5A5A5A"/>
<path d="M124.68 166.797L125.821 168.019L126.912 166.753L136.321 155.837L135.185 154.858L136.321 155.837C138.336 153.499 141.605 153.434 143.712 155.69L143.712 155.69C145.905 158.038 145.984 161.975 143.886 164.409L134.477 175.325L133.598 176.345L134.517 177.328L144.355 187.859C146.549 190.208 146.627 194.145 144.529 196.579L144.529 196.579C142.513 198.917 139.245 198.983 137.138 196.727L137.138 196.727L127.301 186.196L126.16 184.974L125.068 186.24L115.659 197.156L115.659 197.156C113.644 199.495 110.376 199.56 108.269 197.304L108.269 197.304C106.075 194.955 105.996 191.018 108.094 188.584L117.503 177.668L118.382 176.649L117.463 175.665L107.626 165.134C105.432 162.786 105.353 158.848 107.451 156.414L107.451 156.414C109.467 154.076 112.735 154.011 114.842 156.267L115.903 155.275L114.842 156.267L124.68 166.797Z" fill="#5A5A5A" stroke="#022190" stroke-width="3"/>
<path d="M45.5666 135.369L45.5665 135.369L31.3514 105.311L29.9971 105.952L31.3514 105.311C29.8935 102.229 31.0077 98.522 33.5913 97.0141L33.5914 97.014C36.0669 95.5688 39.2516 96.5553 40.6766 99.5683L49.4144 118.044L50.6448 120.646L52.0727 118.147L72.0951 83.1102L72.0951 83.1101C73.0787 81.3886 74.7189 80.4097 76.4172 80.3758L90.0265 80.1038C92.8077 80.0482 95.3828 82.5644 95.4531 86.0805C95.5233 89.5966 93.0509 92.2138 90.2697 92.2694L80.3022 92.4686L79.4518 92.4856L79.0298 93.224L54.6725 135.846C53.5506 137.809 51.7464 138.656 50.0349 138.575C48.3216 138.494 46.5618 137.473 45.5666 135.369Z" fill="#5A5A5A" stroke="#022190" stroke-width="3"/>
</svg>
