<svg width="256" height="256" viewBox="0 0 256 256" fill="none" xmlns="http://www.w3.org/2000/svg">
<g opacity="0.85" clip-path="url(#clip0_20_436)">
<path d="M83.8688 106.355C85.6602 107.195 87.7949 106.42 88.6344 104.629C89.472 102.837 88.6993 100.703 86.908 99.8632C85.1156 99.0245 82.98 99.7979 82.1424 101.59C81.3029 103.381 82.0764 105.516 83.8688 106.355Z" fill="#91CAFF"/>
<path d="M55.1772 108.469L39.8702 141.163C36.5611 148.223 39.5252 156.838 46.7754 160.228C53.9484 163.582 62.4804 160.501 65.837 153.321L74.9569 133.843L84.6949 138.402C86.4885 139.24 88.6217 138.468 89.4604 136.676L93.4127 128.234C93.8192 128.628 96.4984 131.214 143.746 176.821C148.66 183.106 158.536 182.033 161.944 174.747L172.045 153.171L185.856 152.815C187.214 152.779 188.434 151.981 189.01 150.751L195.088 137.767C195.664 136.537 195.491 135.086 194.652 134.024L186.082 123.19L197.296 99.2372C198.921 95.7676 198.604 91.8039 196.451 88.6355C196.426 88.5968 196.4 88.5601 196.374 88.5222C194.255 85.4867 190.821 83.7859 187.127 83.9362L111.42 79.6796L79.5888 64.7774C67.0712 58.9147 52.1035 64.3044 46.2296 76.8622C40.8555 88.3405 44.9608 101.767 55.1772 108.469ZM59.3447 150.284C57.6695 153.867 53.4054 155.414 49.813 153.733C46.2073 152.048 44.6995 147.75 46.361 144.203L61.5604 111.741L74.5444 117.819C56.9532 155.39 59.6258 149.681 59.3447 150.284ZM77.9972 127.351L81.0364 120.859L87.5284 123.898L84.4892 130.39L77.9972 127.351ZM187.657 136.734L183.457 145.706L175.444 145.913L182.684 130.448L187.657 136.734ZM187.336 91.1015C189.176 90.9895 190.183 92.148 190.523 92.665C190.868 93.1707 191.584 94.53 190.804 96.1961L155.452 171.708C154.302 174.167 150.934 174.505 149.32 172.31C149.031 171.916 148.83 171.782 147.922 170.889L185.316 91.0137C186.822 91.0915 186.984 91.1234 187.336 91.1015ZM177.603 90.5799L142.47 165.627L96.6253 121.371L112.747 86.9332L177.603 90.5799ZM52.7216 79.9014C54.0539 77.0525 56.1129 74.6012 58.6777 72.8111C63.9197 69.1524 70.7677 68.5627 76.5496 71.2694L105.764 84.9458L90.5676 117.406L61.3525 103.73C52.4038 99.539 48.5324 88.8504 52.7216 79.9014Z" fill="#91CAFF"/>
<path d="M75.6505 98.5501C76.4892 96.7577 75.7166 94.6233 73.9241 93.7845L67.4321 90.7454C65.6424 89.9081 64.8685 87.7695 65.7057 85.9798C66.5444 84.1873 65.7718 82.0529 63.9793 81.2142C62.1868 80.3755 60.0524 81.1481 59.2137 82.9406C56.7116 88.2843 59.0002 94.7114 64.3929 97.2373L70.8849 100.277C72.6774 101.115 74.8107 100.343 75.6505 98.5501Z" fill="#91CAFF"/>
<path d="M235.486 157.956L214.942 147.94C213.163 147.073 211.016 147.812 210.15 149.591C209.283 151.367 210.018 153.514 211.801 154.383L232.344 164.399C234.124 165.266 236.27 164.527 237.136 162.747C238.005 160.968 237.265 158.823 235.486 157.956Z" fill="#91CAFF"/>
<path d="M203.847 177.484L198.964 164.006C198.29 162.144 196.235 161.181 194.373 161.856C192.512 162.53 191.551 164.585 192.225 166.447L197.109 179.927C197.787 181.8 199.851 182.744 201.699 182.076C203.561 181.401 204.523 179.345 203.847 177.484Z" fill="#91CAFF"/>
<path d="M225.048 120.25L211.566 125.13C209.704 125.805 208.743 127.859 209.416 129.721C210.091 131.581 212.143 132.545 214.007 131.871L227.488 126.989C229.35 126.315 230.313 124.26 229.638 122.398C228.965 120.538 226.91 119.575 225.048 120.25Z" fill="#91CAFF"/>
</g>
<defs>
<clipPath id="clip0_20_436">
<rect width="183.507" height="183.507" fill="white" transform="translate(150.479) rotate(55.0867)"/>
</clipPath>
</defs>
</svg>
