<svg width="248" height="248" viewBox="0 0 248 248" fill="none" xmlns="http://www.w3.org/2000/svg">
<g clip-path="url(#clip0_20_461)">
<path d="M129.361 151.473C130.209 151.297 131.015 150.905 131.686 150.312L168.088 118.27L175.206 152.625C167.345 158.107 155.849 163.16 143.053 166.693C140.35 167.44 138.763 170.236 139.51 172.942C140.226 175.538 142.832 177.103 145.429 176.565C145.537 176.543 145.647 176.515 145.756 176.485C157.997 173.104 168.941 168.528 177.418 163.313L180.916 180.195C178.823 181.165 177.589 183.467 178.077 185.822L181.697 203.293C182.267 206.043 184.953 207.807 187.7 207.238C189.256 206.915 190.477 205.902 191.157 204.595C192.303 205.524 193.827 205.968 195.382 205.646C198.129 205.077 199.894 202.39 199.324 199.641L195.704 182.169C195.215 179.813 193.167 178.193 190.86 178.132L176.095 106.871C175.725 105.083 174.424 103.632 172.69 103.07L119.791 85.9365C117.12 85.0711 114.254 86.5349 113.393 89.2033C112.529 91.8722 113.99 94.736 116.659 95.5995L161.842 110.231L127.144 140.774L29.4989 109.152L106.54 41.333L160.855 58.9226C163.524 59.7862 166.387 58.3229 167.253 55.6535C168.116 52.9846 166.653 50.1213 163.984 49.2578L106.919 30.7774C105.217 30.2258 103.344 30.6115 101.999 31.7969L16.0879 107.423C14.7201 108.628 14.1012 110.479 14.4713 112.265C14.8418 114.054 16.1447 115.504 17.8787 116.066L126.766 151.332C127.619 151.606 128.512 151.649 129.361 151.473Z" fill="#91CAFF"/>
<path d="M215.806 66.0426L184.157 55.7902C181.483 54.9229 178.622 56.388 177.759 59.0569C176.895 61.7259 178.356 64.5896 181.025 65.4531L204.186 72.9573L191.069 84.5026C188.964 86.3579 188.761 89.5663 190.614 91.6724C191.867 93.0941 193.732 93.6488 195.463 93.29C196.295 93.1176 197.098 92.7332 197.784 92.1302L217.598 74.6903C218.968 73.4849 219.584 71.6342 219.214 69.846C218.846 68.0572 217.545 66.6039 215.806 66.0426Z" fill="#91CAFF"/>
<path d="M65.0984 148.716C62.3514 149.285 60.5876 151.974 61.1568 154.721L63.1876 164.522C65.5134 175.748 80.2536 182.259 103.63 182.391C103.995 182.393 104.353 182.356 104.693 182.286C106.992 181.809 108.723 179.782 108.737 177.34C108.752 174.536 106.491 172.25 103.684 172.233C84.934 172.131 74.1199 167.24 73.1305 162.465L71.0997 152.663C70.5324 149.913 67.8455 148.147 65.0984 148.716Z" fill="#91CAFF"/>
<path d="M117.883 173.081C117.147 174.199 116.884 175.604 117.152 176.898C117.424 178.21 118.221 179.373 119.34 180.111C120.463 180.847 121.846 181.114 123.158 180.842C124.469 180.571 125.632 179.776 126.368 178.655C127.106 177.532 127.371 176.149 127.099 174.837C126.828 173.528 126.032 172.36 124.912 171.624C122.69 170.166 119.342 170.859 117.883 173.081Z" fill="#91CAFF"/>
</g>
<defs>
<clipPath id="clip0_20_461">
<rect width="209.093" height="209.093" fill="white" transform="translate(0 42.4219) rotate(-11.7057)"/>
</clipPath>
</defs>
</svg>
