<svg width="36" height="36" viewBox="0 0 36 36" fill="none" xmlns="http://www.w3.org/2000/svg">
<path d="M3.29397 0.633275L34.5743 31.9145C35.3064 32.6465 35.3127 33.827 34.5884 34.5513C33.8642 35.2756 32.6837 35.2693 31.9516 34.5372L0.671269 3.25605C-0.0607702 2.52399 -0.0670769 1.34347 0.657182 0.619188C1.38144 -0.105091 2.56193 -0.098784 3.29397 0.633275Z" fill="black"/>
<path d="M31.9507 0.633299L0.670309 31.9145C-0.0617308 32.6465 -0.0680375 33.8271 0.656222 34.5513C1.38048 35.2756 2.56097 35.2693 3.29301 34.5373L34.5734 3.25607C35.3054 2.52401 35.3117 1.34349 34.5874 0.619212C33.8632 -0.105067 32.6827 -0.0987601 31.9507 0.633299Z" fill="black"/>
</svg>
