<svg width="229" height="69" viewBox="0 0 229 69" fill="none" xmlns="http://www.w3.org/2000/svg">
<path d="M71.2723 48.4004L71.2581 44.7214H72.0393C72.6454 44.7214 73.152 44.5936 73.5592 44.3379C73.9759 44.0727 74.3168 43.6277 74.5819 43.0027C74.8471 42.3777 75.0507 41.5159 75.1927 40.4174C75.3348 39.3095 75.439 37.9174 75.5052 36.2413L75.8888 26.5822H91.116V48.4004H86.9541V30.247H79.8234L79.4825 37.6618C79.3973 39.461 79.2126 41.033 78.9285 42.3777C78.6539 43.7224 78.2515 44.8445 77.7212 45.7441C77.1908 46.6343 76.509 47.3019 75.6757 47.747C74.8424 48.1826 73.8291 48.4004 72.6359 48.4004H71.2723ZM105.97 48.8407C103.925 48.8407 102.14 48.372 100.615 47.4345C99.0907 46.497 97.907 45.1854 97.0642 43.4998C96.2214 41.8142 95.8 39.8445 95.8 37.5907C95.8 35.3275 96.2214 33.3483 97.0642 31.6532C97.907 29.9582 99.0907 28.6419 100.615 27.7044C102.14 26.7669 103.925 26.2981 105.97 26.2981C108.016 26.2981 109.801 26.7669 111.326 27.7044C112.85 28.6419 114.034 29.9582 114.877 31.6532C115.719 33.3483 116.141 35.3275 116.141 37.5907C116.141 39.8445 115.719 41.8142 114.877 43.4998C114.034 45.1854 112.85 46.497 111.326 47.4345C109.801 48.372 108.016 48.8407 105.97 48.8407ZM105.985 45.2754C107.31 45.2754 108.409 44.925 109.28 44.2243C110.151 43.5235 110.795 42.5907 111.212 41.426C111.638 40.2612 111.851 38.978 111.851 37.5765C111.851 36.1845 111.638 34.9061 111.212 33.7413C110.795 32.5671 110.151 31.6248 109.28 30.9146C108.409 30.2044 107.31 29.8493 105.985 29.8493C104.649 29.8493 103.541 30.2044 102.661 30.9146C101.79 31.6248 101.141 32.5671 100.715 33.7413C100.298 34.9061 100.09 36.1845 100.09 37.5765C100.09 38.978 100.298 40.2612 100.715 41.426C101.141 42.5907 101.79 43.5235 102.661 44.2243C103.541 44.925 104.649 45.2754 105.985 45.2754ZM134.831 26.5822V30.247H125.072V48.4004H120.882V26.5822H134.831ZM147.494 48.8407C145.448 48.8407 143.663 48.372 142.139 47.4345C140.614 46.497 139.43 45.1854 138.588 43.4998C137.745 41.8142 137.323 39.8445 137.323 37.5907C137.323 35.3275 137.745 33.3483 138.588 31.6532C139.43 29.9582 140.614 28.6419 142.139 27.7044C143.663 26.7669 145.448 26.2981 147.494 26.2981C149.539 26.2981 151.324 26.7669 152.849 27.7044C154.374 28.6419 155.557 29.9582 156.4 31.6532C157.243 33.3483 157.664 35.3275 157.664 37.5907C157.664 39.8445 157.243 41.8142 156.4 43.4998C155.557 45.1854 154.374 46.497 152.849 47.4345C151.324 48.372 149.539 48.8407 147.494 48.8407ZM147.508 45.2754C148.834 45.2754 149.932 44.925 150.804 44.2243C151.675 43.5235 152.319 42.5907 152.735 41.426C153.161 40.2612 153.375 38.978 153.375 37.5765C153.375 36.1845 153.161 34.9061 152.735 33.7413C152.319 32.5671 151.675 31.6248 150.804 30.9146C149.932 30.2044 148.834 29.8493 147.508 29.8493C146.173 29.8493 145.065 30.2044 144.184 30.9146C143.313 31.6248 142.664 32.5671 142.238 33.7413C141.822 34.9061 141.613 36.1845 141.613 37.5765C141.613 38.978 141.822 40.2612 142.238 41.426C142.664 42.5907 143.313 43.5235 144.184 44.2243C145.065 44.925 146.173 45.2754 147.508 45.2754ZM159.777 30.247V26.5822H178.186V30.247H171.07V48.4004H166.922V30.247H159.777ZM186.84 42.4487L196.457 26.5822H201.031V48.4004H196.869V32.5197L187.295 48.4004H182.679V26.5822H186.84V42.4487ZM206.741 48.4004V26.5822H224.539V48.4004H220.377V30.247H210.875V48.4004H206.741Z" fill="black"/>
<circle cx="29.8597" cy="34.4004" r="29.4092" fill="#0083FF"/>
</svg>
